<svg width="1440" height="1024" viewBox="0 0 1440 1024" fill="none" xmlns="http://www.w3.org/2000/svg">
<mask id="mask0_1_165" style="mask-type:alpha" maskUnits="userSpaceOnUse" x="0" y="0" width="1440" height="1024">
<rect width="1440" height="1024" fill="url(#paint0_linear_1_165)"/>
</mask>
<g mask="url(#mask0_1_165)">
<rect opacity="0.08" y="424" width="200" height="600" fill="#F5F5F5"/>
<circle opacity="0.04" cx="720" cy="924" r="300" fill="#F5F5F5"/>
<path opacity="0.04" fill-rule="evenodd" clip-rule="evenodd" d="M649.498 439.145C649.831 434.14 650 429.09 650 424C650 299.736 549.264 199 425 199C300.736 199 200 299.736 200 424V1024H649.498V439.145Z" fill="#F5F5F5"/>
<path opacity="0.04" d="M1440 1024L0 724V1024H1440Z" fill="#F5F5F5"/>
<path opacity="0.04" fill-rule="evenodd" clip-rule="evenodd" d="M1440 424L650 724V1024H1440V724V424Z" fill="#F5F5F5"/>
<circle opacity="0.04" cx="1390" cy="50" r="50" fill="#F5F5F5"/>
<circle opacity="0.08" cx="1390" cy="150" r="50" fill="#F5F5F5"/>
<circle opacity="0.12" cx="1390" cy="250" r="50" fill="#F5F5F5"/>
<path opacity="0.04" d="M1280 0H1340V1024H1280L1208 512L1280 0Z" fill="#F5F5F5"/>
<path opacity="0.04" fill-rule="evenodd" clip-rule="evenodd" d="M200 1024L380 664L560 1024H380H200Z" fill="#F5F5F5"/>
<rect opacity="0.08" x="1090.71" y="883" width="100" height="100" transform="rotate(45 1090.71 883)" fill="#F5F5F5"/>
<rect opacity="0.04" x="1302.42" y="813" width="200" height="200" transform="rotate(45 1302.42 813)" fill="#F5F5F5"/>
</g>
<defs>
<linearGradient id="paint0_linear_1_165" x1="720" y1="0" x2="720" y2="1024" gradientUnits="userSpaceOnUse">
<stop stop-color="#101010" stop-opacity="0"/>
<stop offset="1" stop-color="#101010"/>
</linearGradient>
</defs>
</svg>
